<svg width="70" height="66" viewBox="0 0 70 66" fill="none" xmlns="http://www.w3.org/2000/svg">
    <g clip-path="url(#clip0)">
        <g opacity="0.5">
            <path opacity="0.5" d="M8.99072 3.07593H8.72009V4.60947H8.99072V3.07593Z" fill="#47E6B1"/>
            <path opacity="0.5" d="M9.62219 3.97796V3.70734H8.08865V3.97796H9.62219Z" fill="#47E6B1"/>
        </g>
        <g opacity="0.5">
            <path opacity="0.5" d="M66.2332 62.5386H65.9626V64.0721H66.2332V62.5386Z" fill="#47E6B1"/>
            <path opacity="0.5" d="M66.8647 63.4407V63.1701H65.3311V63.4407H66.8647Z" fill="#47E6B1"/>
        </g>
        <g opacity="0.5">
            <path opacity="0.5" d="M66.3404 17.5004H66.0698V19.0339H66.3404V17.5004Z" fill="#47E6B1"/>
            <path opacity="0.5" d="M66.9719 18.4025V18.1319H65.4383V18.4025H66.9719Z" fill="#47E6B1"/>
        </g>
        <g opacity="0.5">
            <path opacity="0.5" d="M69.1036 3.68481H68.8329V5.21835H69.1036V3.68481Z" fill="#47E6B1"/>
            <path opacity="0.5" d="M69.735 4.58685V4.31622H68.2015V4.58685H69.735Z" fill="#47E6B1"/>
        </g>
        <g opacity="0.5">
            <path opacity="0.5" d="M21.9759 2.94763H21.7053V4.48117H21.9759V2.94763Z" fill="#47E6B1"/>
            <path opacity="0.5" d="M22.6065 3.84967V3.57904H21.073V3.84967H22.6065Z" fill="#47E6B1"/>
        </g>
        <path opacity="0.5" d="M4.97444 25.8597C4.8999 25.8272 4.83993 25.7684 4.80591 25.6945C4.7719 25.6206 4.76622 25.5368 4.78995 25.4591C4.79379 25.4472 4.79624 25.4349 4.79727 25.4225C4.80273 25.3856 4.79535 25.348 4.77636 25.3159C4.75737 25.2838 4.72792 25.2592 4.69296 25.2463C4.658 25.2333 4.61965 25.2328 4.58434 25.2447C4.54903 25.2567 4.5189 25.2804 4.49901 25.312C4.49155 25.322 4.48528 25.333 4.48032 25.3445C4.44778 25.419 4.38899 25.479 4.31512 25.513C4.24125 25.547 4.15745 25.5527 4.07967 25.529C4.0678 25.5251 4.05553 25.5227 4.0431 25.5216C4.00622 25.5162 3.96858 25.5236 3.9365 25.5426C3.90441 25.5615 3.87983 25.591 3.86688 25.6259C3.85392 25.6609 3.85338 25.6993 3.86534 25.7346C3.8773 25.7699 3.90104 25.8 3.93257 25.8199C3.94265 25.8274 3.95356 25.8336 3.96508 25.8386C4.03961 25.8711 4.09959 25.9299 4.1336 26.0038C4.16761 26.0777 4.17329 26.1615 4.14956 26.2392C4.14572 26.2511 4.14327 26.2634 4.14224 26.2758C4.13678 26.3127 4.14417 26.3503 4.16316 26.3824C4.18215 26.4145 4.21159 26.4391 4.24655 26.452C4.28151 26.465 4.31986 26.4655 4.35517 26.4536C4.39048 26.4416 4.42061 26.4179 4.4405 26.3863C4.44796 26.3763 4.45424 26.3654 4.45919 26.3538C4.49173 26.2793 4.55052 26.2193 4.62439 26.1853C4.69827 26.1513 4.78206 26.1456 4.85985 26.1694C4.87172 26.1732 4.88399 26.1756 4.89642 26.1767C4.9333 26.1821 4.97093 26.1747 5.00302 26.1558C5.0351 26.1368 5.05968 26.1073 5.07263 26.0724C5.08559 26.0374 5.08613 25.9991 5.07417 25.9637C5.06221 25.9284 5.03847 25.8983 5.00694 25.8784C4.99686 25.8709 4.98596 25.8647 4.97444 25.8597Z" fill="#4D8AF0"/>
        <path opacity="0.5" d="M9.97084 56.6069C9.8963 56.5744 9.83632 56.5156 9.80231 56.4417C9.7683 56.3678 9.76262 56.284 9.78635 56.2063C9.79019 56.1944 9.79264 56.1821 9.79367 56.1697C9.79913 56.1328 9.79175 56.0952 9.77276 56.0631C9.75376 56.031 9.72432 56.0064 9.68936 55.9935C9.6544 55.9805 9.61605 55.98 9.58074 55.9919C9.54543 56.0039 9.5153 56.0276 9.49541 56.0592C9.48795 56.0692 9.48168 56.0801 9.47672 56.0917C9.44418 56.1662 9.38539 56.2262 9.31152 56.2602C9.23765 56.2942 9.15385 56.2999 9.07607 56.2761C9.0642 56.2723 9.05192 56.2699 9.03949 56.2688C9.00261 56.2634 8.96498 56.2708 8.9329 56.2897C8.90081 56.3087 8.87623 56.3382 8.86328 56.3731C8.85032 56.4081 8.84978 56.4464 8.86174 56.4818C8.8737 56.5171 8.89744 56.5472 8.92897 56.5671C8.93905 56.5745 8.94996 56.5808 8.96148 56.5858C9.03601 56.6183 9.09599 56.6771 9.13 56.751C9.16401 56.8249 9.16969 56.9086 9.14596 56.9864C9.14212 56.9983 9.13967 57.0106 9.13864 57.023C9.13318 57.0599 9.14057 57.0975 9.15956 57.1296C9.17855 57.1617 9.20799 57.1863 9.24295 57.1992C9.27791 57.2122 9.31626 57.2127 9.35157 57.2008C9.38688 57.1888 9.41701 57.1651 9.4369 57.1335C9.44436 57.1235 9.45063 57.1125 9.45559 57.101C9.48813 57.0265 9.54692 56.9665 9.62079 56.9325C9.69466 56.8985 9.77846 56.8928 9.85625 56.9165C9.86812 56.9204 9.88039 56.9228 9.89282 56.9239C9.9297 56.9293 9.96733 56.9219 9.99942 56.9029C10.0315 56.884 10.0561 56.8545 10.069 56.8196C10.082 56.7846 10.0825 56.7462 10.0706 56.7109C10.0586 56.6756 10.0349 56.6455 10.0033 56.6256C9.99326 56.6181 9.98236 56.6119 9.97084 56.6069Z" fill="#4D8AF0"/>
        <path opacity="0.5" d="M55.4 15.8913C55.3255 15.8587 55.2655 15.7999 55.2315 15.7261C55.1975 15.6522 55.1918 15.5684 55.2156 15.4906C55.2194 15.4787 55.2218 15.4665 55.2229 15.454C55.2283 15.4172 55.2209 15.3795 55.202 15.3474C55.183 15.3154 55.1535 15.2908 55.1186 15.2778C55.0836 15.2649 55.0453 15.2643 55.0099 15.2763C54.9746 15.2883 54.9445 15.312 54.9246 15.3435C54.9171 15.3536 54.9109 15.3645 54.9059 15.376C54.8734 15.4506 54.8146 15.5105 54.7407 15.5445C54.6668 15.5786 54.583 15.5842 54.5053 15.5605C54.4934 15.5567 54.4811 15.5542 54.4687 15.5532C54.4318 15.5477 54.3942 15.5551 54.3621 15.5741C54.33 15.5931 54.3054 15.6225 54.2925 15.6575C54.2795 15.6925 54.279 15.7308 54.2909 15.7661C54.3029 15.8014 54.3266 15.8316 54.3582 15.8514C54.3682 15.8589 54.3792 15.8652 54.3907 15.8701C54.4652 15.9027 54.5252 15.9615 54.5592 16.0353C54.5932 16.1092 54.5989 16.193 54.5752 16.2708C54.5713 16.2827 54.5689 16.2949 54.5678 16.3074C54.5624 16.3442 54.5698 16.3819 54.5888 16.414C54.6077 16.4461 54.6372 16.4706 54.6721 16.4836C54.7071 16.4965 54.7455 16.4971 54.7808 16.4851C54.8161 16.4732 54.8462 16.4494 54.8661 16.4179C54.8736 16.4078 54.8798 16.3969 54.8848 16.3854C54.9173 16.3109 54.9761 16.2509 55.05 16.2169C55.1239 16.1828 55.2077 16.1772 55.2854 16.2009C55.2973 16.2047 55.3096 16.2072 55.322 16.2082C55.3589 16.2137 55.3965 16.2063 55.4286 16.1873C55.4607 16.1683 55.4853 16.1389 55.4982 16.1039C55.5112 16.069 55.5117 16.0306 55.4998 15.9953C55.4878 15.96 55.4641 15.9299 55.4325 15.91C55.4225 15.9025 55.4116 15.8962 55.4 15.8913Z" fill="#4D8AF0"/>
        <path opacity="0.5" d="M54.7946 23.2372C54.7201 23.2047 54.6601 23.1459 54.6261 23.072C54.5921 22.9981 54.5864 22.9143 54.6101 22.8366C54.614 22.8247 54.6164 22.8124 54.6175 22.8C54.6229 22.7631 54.6155 22.7255 54.5965 22.6934C54.5776 22.6613 54.5481 22.6367 54.5132 22.6238C54.4782 22.6108 54.4398 22.6103 54.4045 22.6222C54.3692 22.6342 54.3391 22.6579 54.3192 22.6895C54.3117 22.6995 54.3055 22.7105 54.3005 22.722C54.268 22.7965 54.2092 22.8565 54.1353 22.8905C54.0614 22.9245 53.9776 22.9302 53.8999 22.9065C53.888 22.9026 53.8757 22.9002 53.8633 22.8991C53.8264 22.8937 53.7888 22.9011 53.7567 22.9201C53.7246 22.939 53.7 22.9685 53.6871 23.0034C53.6741 23.0384 53.6736 23.0768 53.6855 23.1121C53.6975 23.1474 53.7212 23.1775 53.7528 23.1974C53.7628 23.2049 53.7737 23.2111 53.7853 23.2161C53.8598 23.2486 53.9198 23.3074 53.9538 23.3813C53.9878 23.4552 53.9935 23.539 53.9697 23.6167C53.9659 23.6286 53.9635 23.6409 53.9624 23.6533C53.957 23.6902 53.9644 23.7278 53.9833 23.7599C54.0023 23.792 54.0318 23.8166 54.0667 23.8295C54.1017 23.8425 54.14 23.843 54.1754 23.8311C54.2107 23.8191 54.2408 23.7954 54.2607 23.7638C54.2682 23.7538 54.2744 23.7429 54.2794 23.7313C54.3119 23.6568 54.3707 23.5968 54.4446 23.5628C54.5185 23.5288 54.6023 23.5231 54.68 23.5469C54.6919 23.5507 54.7042 23.5531 54.7166 23.5542C54.7535 23.5596 54.7911 23.5522 54.8232 23.5333C54.8553 23.5143 54.8799 23.4848 54.8928 23.4499C54.9058 23.4149 54.9063 23.3766 54.8944 23.3412C54.8824 23.3059 54.8587 23.2758 54.8271 23.2559C54.8171 23.2484 54.8061 23.2422 54.7946 23.2372Z" fill="#4D8AF0"/>
        <path opacity="0.5" d="M54.8377 0.614355C54.7632 0.581817 54.7032 0.523023 54.6692 0.449151C54.6352 0.37528 54.6295 0.291485 54.6532 0.2137C54.6571 0.201831 54.6595 0.18956 54.6605 0.177129C54.666 0.140249 54.6586 0.102612 54.6396 0.0705292C54.6206 0.038446 54.5912 0.0138667 54.5562 0.000911835C54.5213 -0.012043 54.4829 -0.0125858 54.4476 -0.000625532C54.4123 0.0113347 54.3822 0.035071 54.3623 0.0666038C54.3548 0.0766822 54.3485 0.0875908 54.3436 0.0991114C54.3112 0.173614 54.2526 0.233638 54.1789 0.267794C54.1052 0.30195 54.0215 0.30786 53.9437 0.284404C53.9319 0.280571 53.9196 0.278117 53.9072 0.27709C53.8703 0.271629 53.8327 0.279012 53.8006 0.298003C53.7685 0.316993 53.7439 0.346436 53.731 0.381395C53.718 0.416355 53.7175 0.454705 53.7294 0.490016C53.7414 0.525328 53.7651 0.555455 53.7966 0.575346C53.8067 0.58281 53.8176 0.589082 53.8292 0.594038C53.9037 0.626575 53.9637 0.68537 53.9977 0.759241C54.0317 0.833112 54.0374 0.916907 54.0136 0.994692C54.0098 1.00656 54.0073 1.01883 54.0063 1.03126C54.0009 1.06814 54.0082 1.10578 54.0272 1.13786C54.0462 1.16995 54.0757 1.19453 54.1106 1.20748C54.1456 1.22044 54.1839 1.22098 54.2192 1.20902C54.2546 1.19706 54.2847 1.17332 54.3046 1.14179C54.312 1.13171 54.3183 1.1208 54.3233 1.10928C54.3549 1.03457 54.4128 0.974036 54.486 0.93914C54.5592 0.904245 54.6427 0.897409 54.7207 0.919925C54.7325 0.923758 54.7448 0.926213 54.7572 0.927239C54.7941 0.9327 54.8318 0.925317 54.8638 0.906326C54.8959 0.887336 54.9205 0.857893 54.9335 0.822934C54.9464 0.787975 54.947 0.749624 54.935 0.714313C54.923 0.679001 54.8993 0.648874 54.8678 0.628983C54.8583 0.623086 54.8482 0.618184 54.8377 0.614355Z" fill="#4D8AF0"/>
        <path opacity="0.5" d="M68.5038 37.7574C68.4293 37.7249 68.3693 37.6661 68.3353 37.5922C68.3013 37.5183 68.2956 37.4346 68.3193 37.3568C68.3231 37.3449 68.3256 37.3326 68.3266 37.3202C68.3321 37.2833 68.3247 37.2457 68.3057 37.2136C68.2867 37.1815 68.2573 37.1569 68.2223 37.144C68.1874 37.131 68.149 37.1305 68.1137 37.1424C68.0784 37.1544 68.0483 37.1781 68.0284 37.2097C68.0209 37.2198 68.0146 37.2307 68.0097 37.2422C67.9771 37.3167 67.9183 37.3767 67.8445 37.4107C67.7706 37.4447 67.6868 37.4504 67.609 37.4267C67.5972 37.4228 67.5849 37.4204 67.5725 37.4193C67.5356 37.4139 67.4979 37.4213 67.4659 37.4403C67.4338 37.4592 67.4092 37.4887 67.3962 37.5237C67.3833 37.5586 67.3827 37.597 67.3947 37.6323C67.4067 37.6676 67.4304 37.6977 67.4619 37.7176C67.472 37.7251 67.4829 37.7313 67.4944 37.7363C67.5697 37.769 67.6302 37.8286 67.6641 37.9033C67.698 37.9781 67.703 38.0628 67.6781 38.141C67.6743 38.1529 67.6718 38.1652 67.6708 38.1776C67.6653 38.2145 67.6727 38.2521 67.6917 38.2842C67.7107 38.3163 67.7401 38.3408 67.7751 38.3538C67.8101 38.3668 67.8484 38.3673 67.8837 38.3553C67.919 38.3434 67.9492 38.3196 67.969 38.2881C67.9765 38.278 67.9828 38.2671 67.9877 38.2556C68.0203 38.1811 68.0791 38.1211 68.1529 38.0871C68.2268 38.0531 68.3106 38.0474 68.3884 38.0711C68.4003 38.075 68.4125 38.0774 68.425 38.0784C68.4618 38.0839 68.4995 38.0765 68.5316 38.0575C68.5636 38.0385 68.5882 38.0091 68.6012 37.9741C68.6141 37.9392 68.6147 37.9008 68.6027 37.8655C68.5908 37.8302 68.567 37.8001 68.5355 37.7802C68.5259 37.7713 68.5152 37.7637 68.5038 37.7574Z" fill="#4D8AF0"/>
        <path opacity="0.5" d="M5.01995 14.0416C5.31887 14.0416 5.5612 13.7993 5.5612 13.5004C5.5612 13.2014 5.31887 12.9591 5.01995 12.9591C4.72102 12.9591 4.4787 13.2014 4.4787 13.5004C4.4787 13.7993 4.72102 14.0416 5.01995 14.0416Z" fill="#F55F44"/>
        <path opacity="0.5" d="M1.05163 52.9131C1.35055 52.9131 1.59288 52.6708 1.59288 52.3719C1.59288 52.073 1.35055 51.8306 1.05163 51.8306C0.752702 51.8306 0.510376 52.073 0.510376 52.3719C0.510376 52.6708 0.752702 52.9131 1.05163 52.9131Z" fill="#F55F44"/>
        <path opacity="0.5" d="M35.7306 4.25364C36.0295 4.25364 36.2718 4.01132 36.2718 3.71239C36.2718 3.41347 36.0295 3.17114 35.7306 3.17114C35.4317 3.17114 35.1893 3.41347 35.1893 3.71239C35.1893 4.01132 35.4317 4.25364 35.7306 4.25364Z" fill="#F55F44"/>
        <path opacity="0.5" d="M41.1756 14.5748C41.4745 14.5748 41.7168 14.3325 41.7168 14.0336C41.7168 13.7346 41.4745 13.4923 41.1756 13.4923C40.8767 13.4923 40.6343 13.7346 40.6343 14.0336C40.6343 14.3325 40.8767 14.5748 41.1756 14.5748Z" fill="#F55F44"/>
        <path opacity="0.5" d="M0.54125 39.443C0.840173 39.443 1.0825 39.2006 1.0825 38.9017C1.0825 38.6028 0.840173 38.3605 0.54125 38.3605C0.242326 38.3605 0 38.6028 0 38.9017C0 39.2006 0.242326 39.443 0.54125 39.443Z" fill="#F55F44"/>
        <path opacity="0.5" d="M21.7394 13.1655C22.0383 13.1655 22.2806 12.9232 22.2806 12.6243C22.2806 12.3253 22.0383 12.083 21.7394 12.083C21.4404 12.083 21.1981 12.3253 21.1981 12.6243C21.1981 12.9232 21.4404 13.1655 21.7394 13.1655Z" fill="#47E6B1"/>
        <path opacity="0.5" d="M58.9686 49.1195C59.2675 49.1195 59.5098 48.8772 59.5098 48.5783C59.5098 48.2794 59.2675 48.037 58.9686 48.037C58.6696 48.037 58.4273 48.2794 58.4273 48.5783C58.4273 48.8772 58.6696 49.1195 58.9686 49.1195Z" fill="#F55F44"/>
        <g opacity="0.5">
            <path opacity="0.5" d="M44.2541 17.3972C43.2057 16.3456 41.6771 15.9271 39.9468 16.2188C38.3304 16.4919 36.7132 17.3672 35.3958 18.6837C35.0136 19.0683 34.6924 19.509 34.4433 19.9905C34.2007 19.4929 33.8821 19.0362 33.499 18.6366C32.1987 17.2981 30.6001 16.3952 28.9886 16.0937C27.2665 15.7686 25.7313 16.1636 24.6651 17.1973C23.5988 18.2311 23.1575 19.7532 23.4257 21.481C23.676 23.1064 24.5245 24.7317 25.8248 26.0719C28.5538 28.887 33.9996 27.7874 34.2304 27.7387L34.2987 27.7249L34.5083 27.7728C34.7383 27.8248 40.1638 29.0178 42.94 26.2507C44.2606 24.9349 45.1407 23.3201 45.4195 21.7045C45.7161 19.9791 45.3025 18.4489 44.2541 17.3972ZM33.308 26.1133C31.9923 26.2905 28.7123 26.531 27.0836 24.8512C26.0369 23.7711 25.3518 22.479 25.1568 21.2144C24.978 20.0604 25.238 19.0795 25.8833 18.4513C26.1364 18.2082 26.4392 18.0227 26.7708 17.9076C27.3136 17.715 27.9597 17.6792 28.6659 17.8117C29.924 18.0466 31.1934 18.7715 32.2418 19.8516C33.8704 21.5354 33.5258 24.8065 33.308 26.1133ZM43.6925 21.4054C43.4755 22.6667 42.7685 23.9459 41.7031 25.0081C40.0452 26.6602 36.7701 26.3628 35.4584 26.1629C35.2625 24.8496 34.9756 21.5736 36.6327 19.9214C37.6981 18.8593 38.9798 18.1571 40.2419 17.9434C40.9505 17.8239 41.5958 17.8702 42.1354 18.0718C42.4649 18.1926 42.7643 18.3834 43.0131 18.6309C43.6494 19.2721 43.8908 20.2571 43.6925 21.407V21.4054Z" fill="url(#paint0_linear)"/>
        </g>
        <path d="M34.757 27.3851L34.2385 27.4948C34.0183 27.5411 28.8073 28.5927 26.1929 25.8995C24.9511 24.6187 24.136 23.0591 23.8962 21.511C23.6402 19.8547 24.0588 18.3976 25.0811 17.4085C26.1035 16.4195 27.5712 16.0448 29.2185 16.352C30.7626 16.6405 32.2937 17.5044 33.5347 18.7852C36.1451 21.4793 34.9309 26.6545 34.8773 26.8731L34.757 27.3851ZM27.1007 18.0887C26.7834 18.1988 26.4936 18.3762 26.2514 18.6089C25.6321 19.2086 25.3851 20.1473 25.5557 21.2517C25.7427 22.4618 26.3977 23.6979 27.3997 24.7316C28.9576 26.3391 32.0962 26.1132 33.3551 25.9393C33.564 24.6869 33.8923 21.5565 32.3344 19.949C31.3323 18.9152 30.1174 18.222 28.9138 17.9985C28.2392 17.8701 27.6208 17.9051 27.1007 18.0887Z" fill="#4A74CB"/>
        <path d="M33.9882 27.4078L33.8703 26.891C33.8208 26.6707 32.696 21.4752 35.3527 18.8275C36.6156 17.5678 38.1638 16.7307 39.7103 16.4707C41.3625 16.1911 42.8253 16.5918 43.829 17.5979C44.8327 18.604 45.2276 20.0684 44.9432 21.7198C44.6766 23.2639 43.8339 24.808 42.571 26.0701C39.9159 28.7138 34.7245 27.5761 34.5042 27.5257L33.9882 27.4078ZM41.8038 18.2448C41.2869 18.0514 40.666 18.0067 39.9923 18.1213C38.7847 18.3252 37.5542 18.9973 36.5384 20.014C34.9528 21.5947 35.2267 24.7276 35.4144 25.9864C36.67 26.1774 39.803 26.4627 41.3901 24.8812C42.4101 23.8645 43.0862 22.6406 43.2943 21.4338C43.4844 20.3326 43.2536 19.3899 42.6441 18.7795C42.4056 18.5426 42.1187 18.3602 41.803 18.2448H41.8038Z" fill="#4A74CB"/>
        <g opacity="0.5">
            <path opacity="0.5" d="M59.3969 26.023H8.87537V36.132H11.5003V65.3896H56.7719V36.132H59.3969V26.023Z" fill="url(#paint1_linear)"/>
        </g>
        <path d="M56.199 29.0795H12.0733V64.8922H56.199V29.0795Z" fill="#F5F5F5"/>
        <path d="M38.293 35.4746H29.9792V64.8923H38.293V35.4746Z" fill="#4A74CB"/>
        <path opacity="0.1" d="M56.199 27.1608H12.0733V36.1141H56.199V27.1608Z" fill="black"/>
        <path d="M58.7565 26.5212H9.51495V35.4746H58.7565V26.5212Z" fill="#F5F5F5"/>
        <path d="M38.293 26.5212H29.9792V35.4746H38.293V26.5212Z" fill="#4A74CB"/>
        <path d="M44.5223 12.8266C44.5223 12.8266 45.378 11.7238 46.0274 12.4658C46.6767 13.2077 45.0042 13.3004 45.0042 13.3004L44.5223 12.8266Z" fill="#FDA57D"/>
        <path opacity="0.1" d="M44.2646 19.6101L44.3572 19.3314L44.6352 19.5175L44.2646 19.6101Z" fill="black"/>
        <path opacity="0.1" d="M50.2867 20.9812C50.2867 20.9812 49.2765 21.4688 48.9977 21.9296L50.2867 20.9812Z" fill="black"/>
        <path opacity="0.1" d="M49.8315 17.9401L49.7389 18.218L49.5528 17.9401H49.8315Z" fill="black"/>
    </g>
    <defs>
        <linearGradient id="paint0_linear" x1="34.4311" y1="28.0727" x2="34.4311" y2="15.9832" gradientUnits="userSpaceOnUse">
            <stop stop-color="#808080" stop-opacity="0.25"/>
            <stop offset="0.54" stop-color="#808080" stop-opacity="0.12"/>
            <stop offset="1" stop-color="#808080" stop-opacity="0.1"/>
        </linearGradient>
        <linearGradient id="paint1_linear" x1="21229.9" y1="31700.7" x2="21229.9" y2="12631.6" gradientUnits="userSpaceOnUse">
            <stop stop-color="#808080" stop-opacity="0.25"/>
            <stop offset="0.54" stop-color="#808080" stop-opacity="0.12"/>
            <stop offset="1" stop-color="#808080" stop-opacity="0.1"/>
        </linearGradient>
        <clipPath id="clip0">
            <rect width="69.7342" height="65.3896" fill="white"/>
        </clipPath>
    </defs>
</svg>
